<mxfile host="app.diagrams.net" modified="2021-11-11T12:06:19.664Z" agent="5.0 (Macintosh; Intel Mac OS X 10_15_7) AppleWebKit/537.36 (KHTML, like Gecko) Chrome/93.0.4577.82 Safari/537.36" etag="wQXQ_qRDsXZQSBTiMMl3" version="15.7.3" type="github">
  <diagram id="j-OUOK9DrUXxNQWRiAmZ" name="Page-1">
    <mxGraphModel dx="4912" dy="2427" grid="1" gridSize="10" guides="1" tooltips="1" connect="1" arrows="1" fold="1" page="1" pageScale="1" pageWidth="827" pageHeight="1169" math="0" shadow="0">
      <root>
        <mxCell id="0" />
        <mxCell id="1" parent="0" />
        <mxCell id="ZY7a_Lk5Y61NJ7jPr_Y_-11" style="edgeStyle=orthogonalEdgeStyle;rounded=0;orthogonalLoop=1;jettySize=auto;html=1;exitX=1;exitY=0.25;exitDx=0;exitDy=0;entryX=0;entryY=0.5;entryDx=0;entryDy=0;endArrow=none;endFill=0;" edge="1" parent="1" source="ZY7a_Lk5Y61NJ7jPr_Y_-1" target="ZY7a_Lk5Y61NJ7jPr_Y_-9">
          <mxGeometry relative="1" as="geometry" />
        </mxCell>
        <mxCell id="ZY7a_Lk5Y61NJ7jPr_Y_-26" value="1" style="edgeLabel;html=1;align=center;verticalAlign=middle;resizable=0;points=[];" vertex="1" connectable="0" parent="ZY7a_Lk5Y61NJ7jPr_Y_-11">
          <mxGeometry x="-0.7143" y="-2" relative="1" as="geometry">
            <mxPoint as="offset" />
          </mxGeometry>
        </mxCell>
        <mxCell id="ZY7a_Lk5Y61NJ7jPr_Y_-13" style="edgeStyle=orthogonalEdgeStyle;rounded=0;orthogonalLoop=1;jettySize=auto;html=1;exitX=1;exitY=0.75;exitDx=0;exitDy=0;entryX=0;entryY=0.5;entryDx=0;entryDy=0;endArrow=none;endFill=0;" edge="1" parent="1" source="ZY7a_Lk5Y61NJ7jPr_Y_-1" target="ZY7a_Lk5Y61NJ7jPr_Y_-10">
          <mxGeometry relative="1" as="geometry" />
        </mxCell>
        <mxCell id="ZY7a_Lk5Y61NJ7jPr_Y_-27" value="1" style="edgeLabel;html=1;align=center;verticalAlign=middle;resizable=0;points=[];" vertex="1" connectable="0" parent="ZY7a_Lk5Y61NJ7jPr_Y_-13">
          <mxGeometry x="-0.7043" relative="1" as="geometry">
            <mxPoint as="offset" />
          </mxGeometry>
        </mxCell>
        <mxCell id="ZY7a_Lk5Y61NJ7jPr_Y_-1" value="Adresse" style="rounded=0;whiteSpace=wrap;html=1;fillColor=#dae8fc;strokeColor=#6c8ebf;" vertex="1" parent="1">
          <mxGeometry x="600" y="-210" width="120" height="60" as="geometry" />
        </mxCell>
        <mxCell id="ZY7a_Lk5Y61NJ7jPr_Y_-108" style="edgeStyle=orthogonalEdgeStyle;rounded=0;orthogonalLoop=1;jettySize=auto;html=1;exitX=0.5;exitY=1;exitDx=0;exitDy=0;entryX=0.5;entryY=0;entryDx=0;entryDy=0;endArrow=none;endFill=0;" edge="1" parent="1" source="ZY7a_Lk5Y61NJ7jPr_Y_-8" target="ZY7a_Lk5Y61NJ7jPr_Y_-107">
          <mxGeometry relative="1" as="geometry" />
        </mxCell>
        <mxCell id="ZY7a_Lk5Y61NJ7jPr_Y_-110" value="1" style="edgeLabel;html=1;align=center;verticalAlign=middle;resizable=0;points=[];" vertex="1" connectable="0" parent="ZY7a_Lk5Y61NJ7jPr_Y_-108">
          <mxGeometry x="-0.4667" y="-3" relative="1" as="geometry">
            <mxPoint as="offset" />
          </mxGeometry>
        </mxCell>
        <mxCell id="ZY7a_Lk5Y61NJ7jPr_Y_-8" value="Kunde" style="rounded=0;whiteSpace=wrap;html=1;fillColor=#dae8fc;strokeColor=#6c8ebf;" vertex="1" parent="1">
          <mxGeometry x="940" y="-210" width="120" height="60" as="geometry" />
        </mxCell>
        <mxCell id="ZY7a_Lk5Y61NJ7jPr_Y_-12" style="edgeStyle=orthogonalEdgeStyle;rounded=0;orthogonalLoop=1;jettySize=auto;html=1;exitX=1;exitY=0.5;exitDx=0;exitDy=0;entryX=0;entryY=0.25;entryDx=0;entryDy=0;endArrow=none;endFill=0;" edge="1" parent="1" source="ZY7a_Lk5Y61NJ7jPr_Y_-9" target="ZY7a_Lk5Y61NJ7jPr_Y_-8">
          <mxGeometry relative="1" as="geometry" />
        </mxCell>
        <mxCell id="ZY7a_Lk5Y61NJ7jPr_Y_-29" value="1" style="edgeLabel;html=1;align=center;verticalAlign=middle;resizable=0;points=[];" vertex="1" connectable="0" parent="ZY7a_Lk5Y61NJ7jPr_Y_-12">
          <mxGeometry x="0.6762" y="2" relative="1" as="geometry">
            <mxPoint as="offset" />
          </mxGeometry>
        </mxCell>
        <mxCell id="ZY7a_Lk5Y61NJ7jPr_Y_-9" value="Kunde hat Lieferanschrift" style="rhombus;whiteSpace=wrap;html=1;fillColor=#fff2cc;strokeColor=#d6b656;" vertex="1" parent="1">
          <mxGeometry x="790" y="-270" width="80" height="80" as="geometry" />
        </mxCell>
        <mxCell id="ZY7a_Lk5Y61NJ7jPr_Y_-14" style="edgeStyle=orthogonalEdgeStyle;rounded=0;orthogonalLoop=1;jettySize=auto;html=1;exitX=1;exitY=0.5;exitDx=0;exitDy=0;entryX=0;entryY=0.75;entryDx=0;entryDy=0;endArrow=none;endFill=0;" edge="1" parent="1" source="ZY7a_Lk5Y61NJ7jPr_Y_-10" target="ZY7a_Lk5Y61NJ7jPr_Y_-8">
          <mxGeometry relative="1" as="geometry" />
        </mxCell>
        <mxCell id="ZY7a_Lk5Y61NJ7jPr_Y_-28" value="1" style="edgeLabel;html=1;align=center;verticalAlign=middle;resizable=0;points=[];" vertex="1" connectable="0" parent="ZY7a_Lk5Y61NJ7jPr_Y_-14">
          <mxGeometry x="0.7931" y="2" relative="1" as="geometry">
            <mxPoint as="offset" />
          </mxGeometry>
        </mxCell>
        <mxCell id="ZY7a_Lk5Y61NJ7jPr_Y_-10" value="Kunde hat Rechnungsanschrift" style="rhombus;whiteSpace=wrap;html=1;fillColor=#fff2cc;strokeColor=#d6b656;" vertex="1" parent="1">
          <mxGeometry x="790" y="-160" width="80" height="80" as="geometry" />
        </mxCell>
        <mxCell id="ZY7a_Lk5Y61NJ7jPr_Y_-15" value="Kundenkonto" style="rounded=0;whiteSpace=wrap;html=1;fillColor=#dae8fc;strokeColor=#6c8ebf;" vertex="1" parent="1">
          <mxGeometry x="940" y="-410" width="120" height="60" as="geometry" />
        </mxCell>
        <mxCell id="ZY7a_Lk5Y61NJ7jPr_Y_-17" style="edgeStyle=orthogonalEdgeStyle;rounded=0;orthogonalLoop=1;jettySize=auto;html=1;exitX=0.5;exitY=0;exitDx=0;exitDy=0;entryX=0.5;entryY=1;entryDx=0;entryDy=0;endArrow=none;endFill=0;" edge="1" parent="1" source="ZY7a_Lk5Y61NJ7jPr_Y_-16" target="ZY7a_Lk5Y61NJ7jPr_Y_-15">
          <mxGeometry relative="1" as="geometry" />
        </mxCell>
        <mxCell id="ZY7a_Lk5Y61NJ7jPr_Y_-102" value="mc" style="edgeLabel;html=1;align=center;verticalAlign=middle;resizable=0;points=[];" vertex="1" connectable="0" parent="ZY7a_Lk5Y61NJ7jPr_Y_-17">
          <mxGeometry y="2" relative="1" as="geometry">
            <mxPoint as="offset" />
          </mxGeometry>
        </mxCell>
        <mxCell id="ZY7a_Lk5Y61NJ7jPr_Y_-18" style="edgeStyle=orthogonalEdgeStyle;rounded=0;orthogonalLoop=1;jettySize=auto;html=1;exitX=0.5;exitY=1;exitDx=0;exitDy=0;entryX=0.5;entryY=0;entryDx=0;entryDy=0;endArrow=none;endFill=0;" edge="1" parent="1" source="ZY7a_Lk5Y61NJ7jPr_Y_-16" target="ZY7a_Lk5Y61NJ7jPr_Y_-8">
          <mxGeometry relative="1" as="geometry" />
        </mxCell>
        <mxCell id="ZY7a_Lk5Y61NJ7jPr_Y_-101" value="1" style="edgeLabel;html=1;align=center;verticalAlign=middle;resizable=0;points=[];" vertex="1" connectable="0" parent="ZY7a_Lk5Y61NJ7jPr_Y_-18">
          <mxGeometry x="-0.1333" y="-2" relative="1" as="geometry">
            <mxPoint as="offset" />
          </mxGeometry>
        </mxCell>
        <mxCell id="ZY7a_Lk5Y61NJ7jPr_Y_-16" value="Kunde besitzt Kundenkonto" style="rhombus;whiteSpace=wrap;html=1;fillColor=#fff2cc;strokeColor=#d6b656;" vertex="1" parent="1">
          <mxGeometry x="960" y="-320" width="80" height="80" as="geometry" />
        </mxCell>
        <mxCell id="ZY7a_Lk5Y61NJ7jPr_Y_-30" value="Adresse" style="rounded=0;whiteSpace=wrap;html=1;fillColor=#dae8fc;strokeColor=#6c8ebf;" vertex="1" parent="1">
          <mxGeometry x="-2314" y="-10" width="120" height="60" as="geometry" />
        </mxCell>
        <mxCell id="ZY7a_Lk5Y61NJ7jPr_Y_-31" value="Adresse_ID" style="ellipse;whiteSpace=wrap;html=1;fillColor=#f5f5f5;fontColor=#333333;strokeColor=#666666;" vertex="1" parent="1">
          <mxGeometry x="-2314" y="180" width="120" height="80" as="geometry" />
        </mxCell>
        <mxCell id="ZY7a_Lk5Y61NJ7jPr_Y_-32" value="StraÃŸe" style="ellipse;whiteSpace=wrap;html=1;fillColor=#f5f5f5;fontColor=#333333;strokeColor=#666666;" vertex="1" parent="1">
          <mxGeometry x="-2314" y="270" width="120" height="80" as="geometry" />
        </mxCell>
        <mxCell id="ZY7a_Lk5Y61NJ7jPr_Y_-33" value="PLZ" style="ellipse;whiteSpace=wrap;html=1;fillColor=#f5f5f5;fontColor=#333333;strokeColor=#666666;" vertex="1" parent="1">
          <mxGeometry x="-2314" y="360" width="120" height="80" as="geometry" />
        </mxCell>
        <mxCell id="ZY7a_Lk5Y61NJ7jPr_Y_-34" value="Ort" style="ellipse;whiteSpace=wrap;html=1;fillColor=#f5f5f5;fontColor=#333333;strokeColor=#666666;" vertex="1" parent="1">
          <mxGeometry x="-2314" y="450" width="120" height="80" as="geometry" />
        </mxCell>
        <mxCell id="ZY7a_Lk5Y61NJ7jPr_Y_-35" value="Hausnummer" style="ellipse;whiteSpace=wrap;html=1;fillColor=#f5f5f5;fontColor=#333333;strokeColor=#666666;" vertex="1" parent="1">
          <mxGeometry x="-2314" y="540" width="120" height="80" as="geometry" />
        </mxCell>
        <mxCell id="ZY7a_Lk5Y61NJ7jPr_Y_-36" value="Name" style="ellipse;whiteSpace=wrap;html=1;fillColor=#f5f5f5;fontColor=#333333;strokeColor=#666666;" vertex="1" parent="1">
          <mxGeometry x="-2314" y="630" width="120" height="80" as="geometry" />
        </mxCell>
        <mxCell id="ZY7a_Lk5Y61NJ7jPr_Y_-37" value="Firma" style="ellipse;whiteSpace=wrap;html=1;fillColor=#f5f5f5;fontColor=#333333;strokeColor=#666666;" vertex="1" parent="1">
          <mxGeometry x="-2314" y="80" width="120" height="80" as="geometry" />
        </mxCell>
        <mxCell id="ZY7a_Lk5Y61NJ7jPr_Y_-50" style="edgeStyle=orthogonalEdgeStyle;rounded=0;orthogonalLoop=1;jettySize=auto;html=1;exitX=1;exitY=0.5;exitDx=0;exitDy=0;endArrow=none;endFill=0;" edge="1" parent="1" source="ZY7a_Lk5Y61NJ7jPr_Y_-39" target="ZY7a_Lk5Y61NJ7jPr_Y_-48">
          <mxGeometry relative="1" as="geometry" />
        </mxCell>
        <mxCell id="ZY7a_Lk5Y61NJ7jPr_Y_-52" value="1" style="edgeLabel;html=1;align=center;verticalAlign=middle;resizable=0;points=[];" vertex="1" connectable="0" parent="ZY7a_Lk5Y61NJ7jPr_Y_-50">
          <mxGeometry x="-0.16" y="1" relative="1" as="geometry">
            <mxPoint as="offset" />
          </mxGeometry>
        </mxCell>
        <mxCell id="ZY7a_Lk5Y61NJ7jPr_Y_-82" style="edgeStyle=orthogonalEdgeStyle;rounded=0;orthogonalLoop=1;jettySize=auto;html=1;exitX=0.5;exitY=1;exitDx=0;exitDy=0;entryX=0.5;entryY=0;entryDx=0;entryDy=0;endArrow=none;endFill=0;" edge="1" parent="1" source="ZY7a_Lk5Y61NJ7jPr_Y_-39" target="ZY7a_Lk5Y61NJ7jPr_Y_-81">
          <mxGeometry relative="1" as="geometry" />
        </mxCell>
        <mxCell id="ZY7a_Lk5Y61NJ7jPr_Y_-84" value="m" style="edgeLabel;html=1;align=center;verticalAlign=middle;resizable=0;points=[];" vertex="1" connectable="0" parent="ZY7a_Lk5Y61NJ7jPr_Y_-82">
          <mxGeometry x="-0.35" relative="1" as="geometry">
            <mxPoint as="offset" />
          </mxGeometry>
        </mxCell>
        <mxCell id="ZY7a_Lk5Y61NJ7jPr_Y_-39" value="Artikel" style="rounded=0;whiteSpace=wrap;html=1;fillColor=#dae8fc;strokeColor=#6c8ebf;" vertex="1" parent="1">
          <mxGeometry x="940" y="190" width="120" height="60" as="geometry" />
        </mxCell>
        <mxCell id="ZY7a_Lk5Y61NJ7jPr_Y_-40" value="Artikel" style="rounded=0;whiteSpace=wrap;html=1;fillColor=#dae8fc;strokeColor=#6c8ebf;" vertex="1" parent="1">
          <mxGeometry x="-1994" y="-10" width="120" height="60" as="geometry" />
        </mxCell>
        <mxCell id="ZY7a_Lk5Y61NJ7jPr_Y_-41" value="Bezeichnung&lt;br&gt;(text) | -" style="ellipse;whiteSpace=wrap;html=1;fillColor=#f5f5f5;fontColor=#333333;strokeColor=#666666;" vertex="1" parent="1">
          <mxGeometry x="-1994" y="180" width="120" height="80" as="geometry" />
        </mxCell>
        <mxCell id="ZY7a_Lk5Y61NJ7jPr_Y_-42" value="Artikel_ID" style="ellipse;whiteSpace=wrap;html=1;fillColor=#f5f5f5;fontColor=#333333;strokeColor=#666666;" vertex="1" parent="1">
          <mxGeometry x="-1994" y="80" width="120" height="80" as="geometry" />
        </mxCell>
        <mxCell id="ZY7a_Lk5Y61NJ7jPr_Y_-43" value="Beschreibung&lt;br&gt;(text) | -" style="ellipse;whiteSpace=wrap;html=1;fillColor=#f5f5f5;fontColor=#333333;strokeColor=#666666;" vertex="1" parent="1">
          <mxGeometry x="-1994" y="270" width="120" height="80" as="geometry" />
        </mxCell>
        <mxCell id="ZY7a_Lk5Y61NJ7jPr_Y_-44" value="Einkaufspreis&lt;br&gt;(float) | -" style="ellipse;whiteSpace=wrap;html=1;fillColor=#f5f5f5;fontColor=#333333;strokeColor=#666666;" vertex="1" parent="1">
          <mxGeometry x="-1994" y="360" width="120" height="80" as="geometry" />
        </mxCell>
        <mxCell id="ZY7a_Lk5Y61NJ7jPr_Y_-45" value="GÃ¼ltigkeitszeitraum&lt;br&gt;(date) | -" style="ellipse;whiteSpace=wrap;html=1;fillColor=#f5f5f5;fontColor=#333333;strokeColor=#666666;" vertex="1" parent="1">
          <mxGeometry x="-1994" y="450" width="120" height="80" as="geometry" />
        </mxCell>
        <mxCell id="ZY7a_Lk5Y61NJ7jPr_Y_-46" value="Lieferant" style="rounded=0;whiteSpace=wrap;html=1;fillColor=#dae8fc;strokeColor=#6c8ebf;" vertex="1" parent="1">
          <mxGeometry x="-1824" y="-10" width="120" height="60" as="geometry" />
        </mxCell>
        <mxCell id="ZY7a_Lk5Y61NJ7jPr_Y_-47" value="Lieferant_ID" style="ellipse;whiteSpace=wrap;html=1;fillColor=#f5f5f5;fontColor=#333333;strokeColor=#666666;" vertex="1" parent="1">
          <mxGeometry x="-1824" y="80" width="120" height="80" as="geometry" />
        </mxCell>
        <mxCell id="ZY7a_Lk5Y61NJ7jPr_Y_-51" style="edgeStyle=orthogonalEdgeStyle;rounded=0;orthogonalLoop=1;jettySize=auto;html=1;exitX=1;exitY=0.5;exitDx=0;exitDy=0;entryX=0;entryY=0.5;entryDx=0;entryDy=0;endArrow=none;endFill=0;" edge="1" parent="1" source="ZY7a_Lk5Y61NJ7jPr_Y_-48" target="ZY7a_Lk5Y61NJ7jPr_Y_-49">
          <mxGeometry relative="1" as="geometry" />
        </mxCell>
        <mxCell id="ZY7a_Lk5Y61NJ7jPr_Y_-53" value="mc" style="edgeLabel;html=1;align=center;verticalAlign=middle;resizable=0;points=[];" vertex="1" connectable="0" parent="ZY7a_Lk5Y61NJ7jPr_Y_-51">
          <mxGeometry x="0.3069" relative="1" as="geometry">
            <mxPoint as="offset" />
          </mxGeometry>
        </mxCell>
        <mxCell id="ZY7a_Lk5Y61NJ7jPr_Y_-48" value="Artikel hat Lieferanten" style="rhombus;whiteSpace=wrap;html=1;fillColor=#fff2cc;strokeColor=#d6b656;" vertex="1" parent="1">
          <mxGeometry x="1110" y="180" width="80" height="80" as="geometry" />
        </mxCell>
        <mxCell id="ZY7a_Lk5Y61NJ7jPr_Y_-77" style="edgeStyle=orthogonalEdgeStyle;rounded=0;orthogonalLoop=1;jettySize=auto;html=1;exitX=0.5;exitY=1;exitDx=0;exitDy=0;entryX=0.5;entryY=0;entryDx=0;entryDy=0;endArrow=none;endFill=0;" edge="1" parent="1" source="ZY7a_Lk5Y61NJ7jPr_Y_-49" target="ZY7a_Lk5Y61NJ7jPr_Y_-76">
          <mxGeometry relative="1" as="geometry" />
        </mxCell>
        <mxCell id="ZY7a_Lk5Y61NJ7jPr_Y_-79" value="1" style="edgeLabel;html=1;align=center;verticalAlign=middle;resizable=0;points=[];" vertex="1" connectable="0" parent="ZY7a_Lk5Y61NJ7jPr_Y_-77">
          <mxGeometry x="-0.35" y="1" relative="1" as="geometry">
            <mxPoint as="offset" />
          </mxGeometry>
        </mxCell>
        <mxCell id="ZY7a_Lk5Y61NJ7jPr_Y_-49" value="Lieferant" style="rounded=0;whiteSpace=wrap;html=1;fillColor=#dae8fc;strokeColor=#6c8ebf;" vertex="1" parent="1">
          <mxGeometry x="1240.5" y="190" width="120" height="60" as="geometry" />
        </mxCell>
        <mxCell id="ZY7a_Lk5Y61NJ7jPr_Y_-54" value="Artikel hat Lieferanten" style="rhombus;whiteSpace=wrap;html=1;fillColor=#fff2cc;strokeColor=#d6b656;" vertex="1" parent="1">
          <mxGeometry x="-1644" y="-20" width="80" height="80" as="geometry" />
        </mxCell>
        <mxCell id="ZY7a_Lk5Y61NJ7jPr_Y_-55" value="Durch. Lieferzeit&lt;br&gt;(int) | -" style="ellipse;whiteSpace=wrap;html=1;fillColor=#f5f5f5;fontColor=#333333;strokeColor=#666666;" vertex="1" parent="1">
          <mxGeometry x="-1664" y="80" width="120" height="80" as="geometry" />
        </mxCell>
        <mxCell id="ZY7a_Lk5Y61NJ7jPr_Y_-56" value="Einkaufspreis&lt;br&gt;(float) | -" style="ellipse;whiteSpace=wrap;html=1;fillColor=#f5f5f5;fontColor=#333333;strokeColor=#666666;" vertex="1" parent="1">
          <mxGeometry x="-1664" y="180" width="120" height="80" as="geometry" />
        </mxCell>
        <mxCell id="ZY7a_Lk5Y61NJ7jPr_Y_-57" value="Freier Bestand&lt;br&gt;(int) | -" style="ellipse;whiteSpace=wrap;html=1;fillColor=#f5f5f5;fontColor=#333333;strokeColor=#666666;" vertex="1" parent="1">
          <mxGeometry x="-1994" y="540" width="120" height="80" as="geometry" />
        </mxCell>
        <mxCell id="ZY7a_Lk5Y61NJ7jPr_Y_-58" value="Reservierter Bestand&lt;br&gt;(int) | -" style="ellipse;whiteSpace=wrap;html=1;fillColor=#f5f5f5;fontColor=#333333;strokeColor=#666666;" vertex="1" parent="1">
          <mxGeometry x="-1994" y="630" width="120" height="80" as="geometry" />
        </mxCell>
        <mxCell id="ZY7a_Lk5Y61NJ7jPr_Y_-59" value="Bestellter Bestand&lt;br&gt;(int) | -" style="ellipse;whiteSpace=wrap;html=1;fillColor=#f5f5f5;fontColor=#333333;strokeColor=#666666;" vertex="1" parent="1">
          <mxGeometry x="-1994" y="720" width="120" height="80" as="geometry" />
        </mxCell>
        <mxCell id="ZY7a_Lk5Y61NJ7jPr_Y_-60" value="Mindestbestand&lt;br&gt;(int) | -" style="ellipse;whiteSpace=wrap;html=1;fillColor=#f5f5f5;fontColor=#333333;strokeColor=#666666;" vertex="1" parent="1">
          <mxGeometry x="-1994" y="810" width="120" height="80" as="geometry" />
        </mxCell>
        <mxCell id="ZY7a_Lk5Y61NJ7jPr_Y_-61" value="Zielbestand&lt;br&gt;(int) | -" style="ellipse;whiteSpace=wrap;html=1;fillColor=#f5f5f5;fontColor=#333333;strokeColor=#666666;" vertex="1" parent="1">
          <mxGeometry x="-1994" y="900" width="120" height="80" as="geometry" />
        </mxCell>
        <mxCell id="ZY7a_Lk5Y61NJ7jPr_Y_-62" value="Lieferzeit&lt;br&gt;(int) | -" style="ellipse;whiteSpace=wrap;html=1;fillColor=#f5f5f5;fontColor=#333333;strokeColor=#666666;" vertex="1" parent="1">
          <mxGeometry x="-1994" y="990" width="120" height="80" as="geometry" />
        </mxCell>
        <mxCell id="ZY7a_Lk5Y61NJ7jPr_Y_-63" value="Bewertung&lt;br&gt;(int) | -" style="ellipse;whiteSpace=wrap;html=1;fillColor=#f5f5f5;fontColor=#333333;strokeColor=#666666;" vertex="1" parent="1">
          <mxGeometry x="-1824" y="180" width="120" height="80" as="geometry" />
        </mxCell>
        <mxCell id="ZY7a_Lk5Y61NJ7jPr_Y_-64" value="Kunde" style="rounded=0;whiteSpace=wrap;html=1;fillColor=#dae8fc;strokeColor=#6c8ebf;" vertex="1" parent="1">
          <mxGeometry x="-1524" y="-10" width="120" height="60" as="geometry" />
        </mxCell>
        <mxCell id="ZY7a_Lk5Y61NJ7jPr_Y_-65" value="Kundenkonto" style="rounded=0;whiteSpace=wrap;html=1;fillColor=#dae8fc;strokeColor=#6c8ebf;" vertex="1" parent="1">
          <mxGeometry x="-1374" y="-10" width="120" height="60" as="geometry" />
        </mxCell>
        <mxCell id="ZY7a_Lk5Y61NJ7jPr_Y_-66" value="Katalog" style="rounded=0;whiteSpace=wrap;html=1;fillColor=#dae8fc;strokeColor=#6c8ebf;" vertex="1" parent="1">
          <mxGeometry x="-2154" y="-10" width="120" height="60" as="geometry" />
        </mxCell>
        <mxCell id="ZY7a_Lk5Y61NJ7jPr_Y_-67" value="Katalog_ID" style="ellipse;whiteSpace=wrap;html=1;fillColor=#f5f5f5;fontColor=#333333;strokeColor=#666666;" vertex="1" parent="1">
          <mxGeometry x="-2154" y="80" width="120" height="80" as="geometry" />
        </mxCell>
        <mxCell id="ZY7a_Lk5Y61NJ7jPr_Y_-70" style="edgeStyle=orthogonalEdgeStyle;rounded=0;orthogonalLoop=1;jettySize=auto;html=1;exitX=1;exitY=0.5;exitDx=0;exitDy=0;endArrow=none;endFill=0;" edge="1" parent="1" source="ZY7a_Lk5Y61NJ7jPr_Y_-68" target="ZY7a_Lk5Y61NJ7jPr_Y_-69">
          <mxGeometry relative="1" as="geometry" />
        </mxCell>
        <mxCell id="ZY7a_Lk5Y61NJ7jPr_Y_-72" value="n" style="edgeLabel;html=1;align=center;verticalAlign=middle;resizable=0;points=[];" vertex="1" connectable="0" parent="ZY7a_Lk5Y61NJ7jPr_Y_-70">
          <mxGeometry x="-0.16" relative="1" as="geometry">
            <mxPoint as="offset" />
          </mxGeometry>
        </mxCell>
        <mxCell id="ZY7a_Lk5Y61NJ7jPr_Y_-68" value="Katalog" style="rounded=0;whiteSpace=wrap;html=1;fillColor=#dae8fc;strokeColor=#6c8ebf;" vertex="1" parent="1">
          <mxGeometry x="640" y="190" width="120" height="60" as="geometry" />
        </mxCell>
        <mxCell id="ZY7a_Lk5Y61NJ7jPr_Y_-71" style="edgeStyle=orthogonalEdgeStyle;rounded=0;orthogonalLoop=1;jettySize=auto;html=1;exitX=1;exitY=0.5;exitDx=0;exitDy=0;entryX=0;entryY=0.5;entryDx=0;entryDy=0;endArrow=none;endFill=0;" edge="1" parent="1" source="ZY7a_Lk5Y61NJ7jPr_Y_-69" target="ZY7a_Lk5Y61NJ7jPr_Y_-39">
          <mxGeometry relative="1" as="geometry" />
        </mxCell>
        <mxCell id="ZY7a_Lk5Y61NJ7jPr_Y_-73" value="m" style="edgeLabel;html=1;align=center;verticalAlign=middle;resizable=0;points=[];" vertex="1" connectable="0" parent="ZY7a_Lk5Y61NJ7jPr_Y_-71">
          <mxGeometry x="-0.08" y="1" relative="1" as="geometry">
            <mxPoint as="offset" />
          </mxGeometry>
        </mxCell>
        <mxCell id="ZY7a_Lk5Y61NJ7jPr_Y_-69" value="Katalog enthÃ¤lt Artikel" style="rhombus;whiteSpace=wrap;html=1;fillColor=#fff2cc;strokeColor=#d6b656;" vertex="1" parent="1">
          <mxGeometry x="810" y="180" width="80" height="80" as="geometry" />
        </mxCell>
        <mxCell id="ZY7a_Lk5Y61NJ7jPr_Y_-74" value="Lieferantenbestellung" style="rounded=0;whiteSpace=wrap;html=1;fillColor=#dae8fc;strokeColor=#6c8ebf;" vertex="1" parent="1">
          <mxGeometry x="-974" y="-10" width="120" height="60" as="geometry" />
        </mxCell>
        <mxCell id="ZY7a_Lk5Y61NJ7jPr_Y_-75" value="Lieferantenbestellung" style="rounded=0;whiteSpace=wrap;html=1;fillColor=#dae8fc;strokeColor=#6c8ebf;" vertex="1" parent="1">
          <mxGeometry x="1241" y="420" width="120" height="60" as="geometry" />
        </mxCell>
        <mxCell id="ZY7a_Lk5Y61NJ7jPr_Y_-78" style="edgeStyle=orthogonalEdgeStyle;rounded=0;orthogonalLoop=1;jettySize=auto;html=1;exitX=0.5;exitY=1;exitDx=0;exitDy=0;entryX=0.5;entryY=0;entryDx=0;entryDy=0;endArrow=none;endFill=0;" edge="1" parent="1" source="ZY7a_Lk5Y61NJ7jPr_Y_-76" target="ZY7a_Lk5Y61NJ7jPr_Y_-75">
          <mxGeometry relative="1" as="geometry" />
        </mxCell>
        <mxCell id="ZY7a_Lk5Y61NJ7jPr_Y_-80" value="1" style="edgeLabel;html=1;align=center;verticalAlign=middle;resizable=0;points=[];" vertex="1" connectable="0" parent="ZY7a_Lk5Y61NJ7jPr_Y_-78">
          <mxGeometry x="-0.1683" y="-1" relative="1" as="geometry">
            <mxPoint as="offset" />
          </mxGeometry>
        </mxCell>
        <mxCell id="ZY7a_Lk5Y61NJ7jPr_Y_-76" value="Lieferant bekommt Bestellungen" style="rhombus;whiteSpace=wrap;html=1;fillColor=#fff2cc;strokeColor=#d6b656;" vertex="1" parent="1">
          <mxGeometry x="1260.5" y="290" width="80" height="80" as="geometry" />
        </mxCell>
        <mxCell id="ZY7a_Lk5Y61NJ7jPr_Y_-83" style="edgeStyle=orthogonalEdgeStyle;rounded=0;orthogonalLoop=1;jettySize=auto;html=1;exitX=0.5;exitY=1;exitDx=0;exitDy=0;entryX=0;entryY=0.5;entryDx=0;entryDy=0;endArrow=none;endFill=0;" edge="1" parent="1" source="ZY7a_Lk5Y61NJ7jPr_Y_-81" target="ZY7a_Lk5Y61NJ7jPr_Y_-75">
          <mxGeometry relative="1" as="geometry" />
        </mxCell>
        <mxCell id="ZY7a_Lk5Y61NJ7jPr_Y_-85" value="1" style="edgeLabel;html=1;align=center;verticalAlign=middle;resizable=0;points=[];" vertex="1" connectable="0" parent="ZY7a_Lk5Y61NJ7jPr_Y_-83">
          <mxGeometry x="0.7632" y="-1" relative="1" as="geometry">
            <mxPoint x="27" y="-1" as="offset" />
          </mxGeometry>
        </mxCell>
        <mxCell id="ZY7a_Lk5Y61NJ7jPr_Y_-81" value="Lieferantenbestellung&amp;nbsp;&lt;br&gt;enthÃ¤lt Artikel" style="rhombus;whiteSpace=wrap;html=1;fillColor=#fff2cc;strokeColor=#d6b656;" vertex="1" parent="1">
          <mxGeometry x="960" y="290" width="80" height="80" as="geometry" />
        </mxCell>
        <mxCell id="ZY7a_Lk5Y61NJ7jPr_Y_-86" value="Lieferantenbestellung&lt;br&gt;enthÃ¤lt Artikel" style="rhombus;whiteSpace=wrap;html=1;fillColor=#fff2cc;strokeColor=#d6b656;" vertex="1" parent="1">
          <mxGeometry x="-814" y="-20" width="80" height="80" as="geometry" />
        </mxCell>
        <mxCell id="ZY7a_Lk5Y61NJ7jPr_Y_-87" value="Referenznummer&lt;br&gt;(int) | -" style="ellipse;whiteSpace=wrap;html=1;fillColor=#f5f5f5;fontColor=#333333;strokeColor=#666666;" vertex="1" parent="1">
          <mxGeometry x="-974" y="80" width="120" height="80" as="geometry" />
        </mxCell>
        <mxCell id="ZY7a_Lk5Y61NJ7jPr_Y_-88" value="Datum&lt;br&gt;(date) | -" style="ellipse;whiteSpace=wrap;html=1;fillColor=#f5f5f5;fontColor=#333333;strokeColor=#666666;" vertex="1" parent="1">
          <mxGeometry x="-974" y="180" width="120" height="80" as="geometry" />
        </mxCell>
        <mxCell id="ZY7a_Lk5Y61NJ7jPr_Y_-89" value="Lieferdatum&lt;br&gt;(date) | -" style="ellipse;whiteSpace=wrap;html=1;fillColor=#f5f5f5;fontColor=#333333;strokeColor=#666666;" vertex="1" parent="1">
          <mxGeometry x="-974" y="270" width="120" height="80" as="geometry" />
        </mxCell>
        <mxCell id="ZY7a_Lk5Y61NJ7jPr_Y_-90" value="Menge&lt;br&gt;(int) | -" style="ellipse;whiteSpace=wrap;html=1;fillColor=#f5f5f5;fontColor=#333333;strokeColor=#666666;" vertex="1" parent="1">
          <mxGeometry x="-834" y="80" width="120" height="80" as="geometry" />
        </mxCell>
        <mxCell id="ZY7a_Lk5Y61NJ7jPr_Y_-91" value="Preis&lt;br&gt;(float) | -" style="ellipse;whiteSpace=wrap;html=1;fillColor=#f5f5f5;fontColor=#333333;strokeColor=#666666;" vertex="1" parent="1">
          <mxGeometry x="-834" y="180" width="120" height="80" as="geometry" />
        </mxCell>
        <mxCell id="ZY7a_Lk5Y61NJ7jPr_Y_-94" value="1" style="edgeStyle=orthogonalEdgeStyle;rounded=0;orthogonalLoop=1;jettySize=auto;html=1;exitX=0.5;exitY=1;exitDx=0;exitDy=0;entryX=0.5;entryY=0;entryDx=0;entryDy=0;endArrow=none;endFill=0;" edge="1" parent="1" source="ZY7a_Lk5Y61NJ7jPr_Y_-92" target="ZY7a_Lk5Y61NJ7jPr_Y_-93">
          <mxGeometry relative="1" as="geometry" />
        </mxCell>
        <mxCell id="ZY7a_Lk5Y61NJ7jPr_Y_-92" value="Warenkorb" style="rounded=0;whiteSpace=wrap;html=1;" vertex="1" parent="1">
          <mxGeometry x="940" y="-10" width="120" height="60" as="geometry" />
        </mxCell>
        <mxCell id="ZY7a_Lk5Y61NJ7jPr_Y_-95" style="edgeStyle=orthogonalEdgeStyle;rounded=0;orthogonalLoop=1;jettySize=auto;html=1;exitX=0.5;exitY=1;exitDx=0;exitDy=0;entryX=0.5;entryY=0;entryDx=0;entryDy=0;endArrow=none;endFill=0;" edge="1" parent="1" source="ZY7a_Lk5Y61NJ7jPr_Y_-93" target="ZY7a_Lk5Y61NJ7jPr_Y_-39">
          <mxGeometry relative="1" as="geometry" />
        </mxCell>
        <mxCell id="ZY7a_Lk5Y61NJ7jPr_Y_-96" value="mc" style="edgeLabel;html=1;align=center;verticalAlign=middle;resizable=0;points=[];" vertex="1" connectable="0" parent="ZY7a_Lk5Y61NJ7jPr_Y_-95">
          <mxGeometry x="-0.0667" y="1" relative="1" as="geometry">
            <mxPoint as="offset" />
          </mxGeometry>
        </mxCell>
        <mxCell id="ZY7a_Lk5Y61NJ7jPr_Y_-93" value="Warenkorb enthÃ¤lt Artikel" style="rhombus;whiteSpace=wrap;html=1;" vertex="1" parent="1">
          <mxGeometry x="960" y="80" width="80" height="80" as="geometry" />
        </mxCell>
        <mxCell id="ZY7a_Lk5Y61NJ7jPr_Y_-97" value="Warenkorb" style="rounded=0;whiteSpace=wrap;html=1;" vertex="1" parent="1">
          <mxGeometry x="-1234" y="-10" width="120" height="60" as="geometry" />
        </mxCell>
        <mxCell id="ZY7a_Lk5Y61NJ7jPr_Y_-98" value="Warenkorb enthÃ¤lt Artikel" style="rhombus;whiteSpace=wrap;html=1;" vertex="1" parent="1">
          <mxGeometry x="-1084" y="-20" width="80" height="80" as="geometry" />
        </mxCell>
        <mxCell id="ZY7a_Lk5Y61NJ7jPr_Y_-99" value="Menge&lt;br&gt;(int) | -" style="ellipse;whiteSpace=wrap;html=1;" vertex="1" parent="1">
          <mxGeometry x="-1106" y="80" width="120" height="80" as="geometry" />
        </mxCell>
        <mxCell id="ZY7a_Lk5Y61NJ7jPr_Y_-100" value="Warenkorb_ID" style="ellipse;whiteSpace=wrap;html=1;" vertex="1" parent="1">
          <mxGeometry x="-1234" y="80" width="120" height="80" as="geometry" />
        </mxCell>
        <mxCell id="ZY7a_Lk5Y61NJ7jPr_Y_-103" value="Kunden_ID" style="ellipse;whiteSpace=wrap;html=1;fillColor=#f5f5f5;fontColor=#333333;strokeColor=#666666;" vertex="1" parent="1">
          <mxGeometry x="-1524" y="80" width="120" height="80" as="geometry" />
        </mxCell>
        <mxCell id="ZY7a_Lk5Y61NJ7jPr_Y_-104" value="Kundenkonto_ID" style="ellipse;whiteSpace=wrap;html=1;fillColor=#f5f5f5;fontColor=#333333;strokeColor=#666666;" vertex="1" parent="1">
          <mxGeometry x="-1374" y="80" width="120" height="80" as="geometry" />
        </mxCell>
        <mxCell id="ZY7a_Lk5Y61NJ7jPr_Y_-105" value="Email Adresse&lt;br&gt;(text) | -" style="ellipse;whiteSpace=wrap;html=1;fillColor=#f5f5f5;fontColor=#333333;strokeColor=#666666;" vertex="1" parent="1">
          <mxGeometry x="-1374" y="180" width="120" height="80" as="geometry" />
        </mxCell>
        <mxCell id="ZY7a_Lk5Y61NJ7jPr_Y_-106" value="Kennwort&lt;br&gt;(text) | -" style="ellipse;whiteSpace=wrap;html=1;fillColor=#f5f5f5;fontColor=#333333;strokeColor=#666666;" vertex="1" parent="1">
          <mxGeometry x="-1374" y="270" width="120" height="80" as="geometry" />
        </mxCell>
        <mxCell id="ZY7a_Lk5Y61NJ7jPr_Y_-109" value="1" style="edgeStyle=orthogonalEdgeStyle;rounded=0;orthogonalLoop=1;jettySize=auto;html=1;exitX=0.5;exitY=1;exitDx=0;exitDy=0;entryX=0.5;entryY=0;entryDx=0;entryDy=0;endArrow=none;endFill=0;" edge="1" parent="1" source="ZY7a_Lk5Y61NJ7jPr_Y_-107" target="ZY7a_Lk5Y61NJ7jPr_Y_-92">
          <mxGeometry relative="1" as="geometry" />
        </mxCell>
        <mxCell id="ZY7a_Lk5Y61NJ7jPr_Y_-107" value="Kunde besitzt Warenkorb" style="rhombus;whiteSpace=wrap;html=1;" vertex="1" parent="1">
          <mxGeometry x="960" y="-120" width="80" height="80" as="geometry" />
        </mxCell>
        <mxCell id="ZY7a_Lk5Y61NJ7jPr_Y_-127" value="m" style="edgeStyle=orthogonalEdgeStyle;rounded=0;orthogonalLoop=1;jettySize=auto;html=1;endArrow=none;endFill=0;" edge="1" parent="1" source="ZY7a_Lk5Y61NJ7jPr_Y_-111" target="ZY7a_Lk5Y61NJ7jPr_Y_-126">
          <mxGeometry relative="1" as="geometry" />
        </mxCell>
        <mxCell id="ZY7a_Lk5Y61NJ7jPr_Y_-111" value="Auftragskopf" style="rounded=0;whiteSpace=wrap;html=1;fillColor=#dae8fc;strokeColor=#6c8ebf;" vertex="1" parent="1">
          <mxGeometry x="1241" y="-410" width="120" height="60" as="geometry" />
        </mxCell>
        <mxCell id="ZY7a_Lk5Y61NJ7jPr_Y_-113" style="edgeStyle=orthogonalEdgeStyle;rounded=0;orthogonalLoop=1;jettySize=auto;html=1;exitX=1;exitY=0.5;exitDx=0;exitDy=0;endArrow=none;endFill=0;" edge="1" parent="1" source="ZY7a_Lk5Y61NJ7jPr_Y_-112" target="ZY7a_Lk5Y61NJ7jPr_Y_-111">
          <mxGeometry relative="1" as="geometry" />
        </mxCell>
        <mxCell id="ZY7a_Lk5Y61NJ7jPr_Y_-116" value="1" style="edgeLabel;html=1;align=center;verticalAlign=middle;resizable=0;points=[];" vertex="1" connectable="0" parent="ZY7a_Lk5Y61NJ7jPr_Y_-113">
          <mxGeometry x="-0.0196" y="1" relative="1" as="geometry">
            <mxPoint as="offset" />
          </mxGeometry>
        </mxCell>
        <mxCell id="ZY7a_Lk5Y61NJ7jPr_Y_-115" value="1" style="edgeStyle=orthogonalEdgeStyle;rounded=0;orthogonalLoop=1;jettySize=auto;html=1;endArrow=none;endFill=0;" edge="1" parent="1" source="ZY7a_Lk5Y61NJ7jPr_Y_-112" target="ZY7a_Lk5Y61NJ7jPr_Y_-15">
          <mxGeometry relative="1" as="geometry" />
        </mxCell>
        <mxCell id="ZY7a_Lk5Y61NJ7jPr_Y_-112" value="Auftragskopf enthÃ¤lt Kundenkonto" style="rhombus;whiteSpace=wrap;html=1;fillColor=#fff2cc;strokeColor=#d6b656;" vertex="1" parent="1">
          <mxGeometry x="1110" y="-420" width="80" height="80" as="geometry" />
        </mxCell>
        <mxCell id="ZY7a_Lk5Y61NJ7jPr_Y_-146" value="" style="edgeStyle=orthogonalEdgeStyle;rounded=0;orthogonalLoop=1;jettySize=auto;html=1;endArrow=none;endFill=0;" edge="1" parent="1" source="ZY7a_Lk5Y61NJ7jPr_Y_-117" target="ZY7a_Lk5Y61NJ7jPr_Y_-145">
          <mxGeometry relative="1" as="geometry" />
        </mxCell>
        <mxCell id="ZY7a_Lk5Y61NJ7jPr_Y_-148" value="1" style="edgeLabel;html=1;align=center;verticalAlign=middle;resizable=0;points=[];" vertex="1" connectable="0" parent="ZY7a_Lk5Y61NJ7jPr_Y_-146">
          <mxGeometry x="-0.1" y="-4" relative="1" as="geometry">
            <mxPoint as="offset" />
          </mxGeometry>
        </mxCell>
        <mxCell id="ZY7a_Lk5Y61NJ7jPr_Y_-117" value="Auftrag" style="rounded=0;whiteSpace=wrap;html=1;fillColor=#dae8fc;strokeColor=#6c8ebf;" vertex="1" parent="1">
          <mxGeometry x="1540" y="-410" width="120" height="60" as="geometry" />
        </mxCell>
        <mxCell id="ZY7a_Lk5Y61NJ7jPr_Y_-119" value="" style="edgeStyle=orthogonalEdgeStyle;rounded=0;orthogonalLoop=1;jettySize=auto;html=1;endArrow=none;endFill=0;" edge="1" parent="1" source="ZY7a_Lk5Y61NJ7jPr_Y_-118" target="ZY7a_Lk5Y61NJ7jPr_Y_-111">
          <mxGeometry relative="1" as="geometry" />
        </mxCell>
        <mxCell id="ZY7a_Lk5Y61NJ7jPr_Y_-121" value="1" style="edgeLabel;html=1;align=center;verticalAlign=middle;resizable=0;points=[];" vertex="1" connectable="0" parent="ZY7a_Lk5Y61NJ7jPr_Y_-119">
          <mxGeometry x="0.3469" relative="1" as="geometry">
            <mxPoint as="offset" />
          </mxGeometry>
        </mxCell>
        <mxCell id="ZY7a_Lk5Y61NJ7jPr_Y_-120" value="1" style="edgeStyle=orthogonalEdgeStyle;rounded=0;orthogonalLoop=1;jettySize=auto;html=1;endArrow=none;endFill=0;" edge="1" parent="1" source="ZY7a_Lk5Y61NJ7jPr_Y_-118" target="ZY7a_Lk5Y61NJ7jPr_Y_-117">
          <mxGeometry relative="1" as="geometry" />
        </mxCell>
        <mxCell id="ZY7a_Lk5Y61NJ7jPr_Y_-118" value="Auftrag enthÃ¤lt Auftragskopf" style="rhombus;whiteSpace=wrap;html=1;fillColor=#fff2cc;strokeColor=#d6b656;" vertex="1" parent="1">
          <mxGeometry x="1410" y="-420" width="80" height="80" as="geometry" />
        </mxCell>
        <mxCell id="ZY7a_Lk5Y61NJ7jPr_Y_-122" value="Auftrag" style="rounded=0;whiteSpace=wrap;html=1;fillColor=#dae8fc;strokeColor=#6c8ebf;" vertex="1" parent="1">
          <mxGeometry x="-684" y="-10" width="120" height="60" as="geometry" />
        </mxCell>
        <mxCell id="ZY7a_Lk5Y61NJ7jPr_Y_-123" value="Auftragskopf" style="rounded=0;whiteSpace=wrap;html=1;fillColor=#dae8fc;strokeColor=#6c8ebf;" vertex="1" parent="1">
          <mxGeometry x="-534" y="-10" width="120" height="60" as="geometry" />
        </mxCell>
        <mxCell id="ZY7a_Lk5Y61NJ7jPr_Y_-159" style="edgeStyle=orthogonalEdgeStyle;rounded=0;orthogonalLoop=1;jettySize=auto;html=1;exitX=0.5;exitY=1;exitDx=0;exitDy=0;entryX=1;entryY=0.5;entryDx=0;entryDy=0;endArrow=none;endFill=0;" edge="1" parent="1" source="ZY7a_Lk5Y61NJ7jPr_Y_-124" target="ZY7a_Lk5Y61NJ7jPr_Y_-158">
          <mxGeometry relative="1" as="geometry" />
        </mxCell>
        <mxCell id="ZY7a_Lk5Y61NJ7jPr_Y_-124" value="Zahlungsart" style="rounded=0;whiteSpace=wrap;html=1;fillColor=#dae8fc;strokeColor=#6c8ebf;" vertex="1" parent="1">
          <mxGeometry x="-384" y="-10" width="120" height="60" as="geometry" />
        </mxCell>
        <mxCell id="ZY7a_Lk5Y61NJ7jPr_Y_-128" value="" style="edgeStyle=orthogonalEdgeStyle;rounded=0;orthogonalLoop=1;jettySize=auto;html=1;endArrow=none;endFill=0;" edge="1" parent="1" source="ZY7a_Lk5Y61NJ7jPr_Y_-125" target="ZY7a_Lk5Y61NJ7jPr_Y_-126">
          <mxGeometry relative="1" as="geometry" />
        </mxCell>
        <mxCell id="ZY7a_Lk5Y61NJ7jPr_Y_-129" value="1" style="edgeLabel;html=1;align=center;verticalAlign=middle;resizable=0;points=[];" vertex="1" connectable="0" parent="ZY7a_Lk5Y61NJ7jPr_Y_-128">
          <mxGeometry relative="1" as="geometry">
            <mxPoint as="offset" />
          </mxGeometry>
        </mxCell>
        <mxCell id="ZY7a_Lk5Y61NJ7jPr_Y_-125" value="Zahlungsart" style="rounded=0;whiteSpace=wrap;html=1;fillColor=#dae8fc;strokeColor=#6c8ebf;" vertex="1" parent="1">
          <mxGeometry x="1241" y="-190" width="120" height="60" as="geometry" />
        </mxCell>
        <mxCell id="ZY7a_Lk5Y61NJ7jPr_Y_-126" value="Auftragskopf enthÃ¤lt Zahlungsart" style="rhombus;whiteSpace=wrap;html=1;fillColor=#fff2cc;strokeColor=#d6b656;" vertex="1" parent="1">
          <mxGeometry x="1261" y="-310" width="80" height="80" as="geometry" />
        </mxCell>
        <mxCell id="ZY7a_Lk5Y61NJ7jPr_Y_-130" value="Auftrag_ID" style="ellipse;whiteSpace=wrap;html=1;fillColor=#f5f5f5;fontColor=#333333;strokeColor=#666666;" vertex="1" parent="1">
          <mxGeometry x="-684" y="80" width="120" height="80" as="geometry" />
        </mxCell>
        <mxCell id="ZY7a_Lk5Y61NJ7jPr_Y_-131" value="Auftragsnummer&lt;br&gt;(int) | -" style="ellipse;whiteSpace=wrap;html=1;fillColor=#f5f5f5;fontColor=#333333;strokeColor=#666666;" vertex="1" parent="1">
          <mxGeometry x="-534" y="80" width="120" height="80" as="geometry" />
        </mxCell>
        <mxCell id="ZY7a_Lk5Y61NJ7jPr_Y_-132" value="Auftragsdatum&lt;br&gt;(date) | -" style="ellipse;whiteSpace=wrap;html=1;fillColor=#f5f5f5;fontColor=#333333;strokeColor=#666666;" vertex="1" parent="1">
          <mxGeometry x="-534" y="180" width="120" height="80" as="geometry" />
        </mxCell>
        <mxCell id="ZY7a_Lk5Y61NJ7jPr_Y_-133" value="Auftragsdatum&lt;br&gt;(date) | -" style="ellipse;whiteSpace=wrap;html=1;fillColor=#f5f5f5;fontColor=#333333;strokeColor=#666666;" vertex="1" parent="1">
          <mxGeometry x="-534" y="270" width="120" height="80" as="geometry" />
        </mxCell>
        <mxCell id="ZY7a_Lk5Y61NJ7jPr_Y_-140" value="Versandart&lt;br&gt;(enum) | -" style="ellipse;whiteSpace=wrap;html=1;fillColor=#f5f5f5;fontColor=#333333;strokeColor=#666666;" vertex="1" parent="1">
          <mxGeometry x="-534" y="370" width="120" height="80" as="geometry" />
        </mxCell>
        <mxCell id="ZY7a_Lk5Y61NJ7jPr_Y_-142" value="Komplettlieferung&lt;br&gt;Teillieferung" style="rounded=1;whiteSpace=wrap;html=1;fillColor=#d5e8d4;strokeColor=#82b366;" vertex="1" parent="1">
          <mxGeometry x="-534" y="460" width="120" height="60" as="geometry" />
        </mxCell>
        <mxCell id="ZY7a_Lk5Y61NJ7jPr_Y_-143" value="Position" style="rounded=0;whiteSpace=wrap;html=1;fillColor=#dae8fc;strokeColor=#6c8ebf;" vertex="1" parent="1">
          <mxGeometry x="-234" y="-10" width="120" height="60" as="geometry" />
        </mxCell>
        <mxCell id="ZY7a_Lk5Y61NJ7jPr_Y_-144" value="Position" style="rounded=0;whiteSpace=wrap;html=1;fillColor=#dae8fc;strokeColor=#6c8ebf;" vertex="1" parent="1">
          <mxGeometry x="1540" y="-190" width="120" height="60" as="geometry" />
        </mxCell>
        <mxCell id="ZY7a_Lk5Y61NJ7jPr_Y_-147" value="mc" style="edgeStyle=orthogonalEdgeStyle;rounded=0;orthogonalLoop=1;jettySize=auto;html=1;endArrow=none;endFill=0;" edge="1" parent="1" source="ZY7a_Lk5Y61NJ7jPr_Y_-145" target="ZY7a_Lk5Y61NJ7jPr_Y_-144">
          <mxGeometry relative="1" as="geometry" />
        </mxCell>
        <mxCell id="ZY7a_Lk5Y61NJ7jPr_Y_-145" value="Auftrag enthÃ¤lt Positionen" style="rhombus;whiteSpace=wrap;html=1;fillColor=#fff2cc;strokeColor=#d6b656;" vertex="1" parent="1">
          <mxGeometry x="1560" y="-310" width="80" height="80" as="geometry" />
        </mxCell>
        <mxCell id="ZY7a_Lk5Y61NJ7jPr_Y_-150" style="edgeStyle=orthogonalEdgeStyle;rounded=0;orthogonalLoop=1;jettySize=auto;html=1;exitX=0.5;exitY=1;exitDx=0;exitDy=0;entryX=0.75;entryY=0;entryDx=0;entryDy=0;endArrow=none;endFill=0;" edge="1" parent="1" source="ZY7a_Lk5Y61NJ7jPr_Y_-149" target="ZY7a_Lk5Y61NJ7jPr_Y_-39">
          <mxGeometry relative="1" as="geometry">
            <Array as="points">
              <mxPoint x="1600" y="150" />
              <mxPoint x="1030" y="150" />
            </Array>
          </mxGeometry>
        </mxCell>
        <mxCell id="ZY7a_Lk5Y61NJ7jPr_Y_-153" value="1" style="edgeLabel;html=1;align=center;verticalAlign=middle;resizable=0;points=[];" vertex="1" connectable="0" parent="ZY7a_Lk5Y61NJ7jPr_Y_-150">
          <mxGeometry x="-0.961" y="-4" relative="1" as="geometry">
            <mxPoint as="offset" />
          </mxGeometry>
        </mxCell>
        <mxCell id="ZY7a_Lk5Y61NJ7jPr_Y_-151" value="" style="edgeStyle=orthogonalEdgeStyle;rounded=0;orthogonalLoop=1;jettySize=auto;html=1;endArrow=none;endFill=0;" edge="1" parent="1" source="ZY7a_Lk5Y61NJ7jPr_Y_-149" target="ZY7a_Lk5Y61NJ7jPr_Y_-144">
          <mxGeometry relative="1" as="geometry" />
        </mxCell>
        <mxCell id="ZY7a_Lk5Y61NJ7jPr_Y_-152" value="1" style="edgeLabel;html=1;align=center;verticalAlign=middle;resizable=0;points=[];" vertex="1" connectable="0" parent="ZY7a_Lk5Y61NJ7jPr_Y_-151">
          <mxGeometry x="0.05" y="2" relative="1" as="geometry">
            <mxPoint as="offset" />
          </mxGeometry>
        </mxCell>
        <mxCell id="ZY7a_Lk5Y61NJ7jPr_Y_-149" value="Position enthÃ¤lt Artikel" style="rhombus;whiteSpace=wrap;html=1;fillColor=#fff2cc;strokeColor=#d6b656;" vertex="1" parent="1">
          <mxGeometry x="1560" y="-90" width="80" height="80" as="geometry" />
        </mxCell>
        <mxCell id="ZY7a_Lk5Y61NJ7jPr_Y_-154" value="Position enthÃ¤lt Artikel" style="rhombus;whiteSpace=wrap;html=1;fillColor=#fff2cc;strokeColor=#d6b656;" vertex="1" parent="1">
          <mxGeometry x="-84" y="-20" width="80" height="80" as="geometry" />
        </mxCell>
        <mxCell id="ZY7a_Lk5Y61NJ7jPr_Y_-155" value="Menge&lt;br&gt;(int) | -" style="ellipse;whiteSpace=wrap;html=1;fillColor=#f5f5f5;fontColor=#333333;strokeColor=#666666;" vertex="1" parent="1">
          <mxGeometry x="-104" y="80" width="120" height="80" as="geometry" />
        </mxCell>
        <mxCell id="ZY7a_Lk5Y61NJ7jPr_Y_-156" value="Preis&lt;br&gt;(float) | -" style="ellipse;whiteSpace=wrap;html=1;fillColor=#f5f5f5;fontColor=#333333;strokeColor=#666666;" vertex="1" parent="1">
          <mxGeometry x="-104" y="180" width="120" height="80" as="geometry" />
        </mxCell>
        <mxCell id="ZY7a_Lk5Y61NJ7jPr_Y_-157" value="Positions_ID" style="ellipse;whiteSpace=wrap;html=1;fillColor=#f5f5f5;fontColor=#333333;strokeColor=#666666;" vertex="1" parent="1">
          <mxGeometry x="-234" y="80" width="120" height="80" as="geometry" />
        </mxCell>
        <mxCell id="ZY7a_Lk5Y61NJ7jPr_Y_-164" style="edgeStyle=orthogonalEdgeStyle;rounded=0;orthogonalLoop=1;jettySize=auto;html=1;exitX=0;exitY=0.5;exitDx=0;exitDy=0;entryX=0.5;entryY=0;entryDx=0;entryDy=0;endArrow=none;endFill=0;" edge="1" parent="1" source="ZY7a_Lk5Y61NJ7jPr_Y_-158" target="ZY7a_Lk5Y61NJ7jPr_Y_-160">
          <mxGeometry relative="1" as="geometry" />
        </mxCell>
        <mxCell id="ZY7a_Lk5Y61NJ7jPr_Y_-158" value="" style="triangle;whiteSpace=wrap;html=1;direction=north;fillColor=#d5e8d4;strokeColor=#82b366;" vertex="1" parent="1">
          <mxGeometry x="-364" y="80" width="80" height="60" as="geometry" />
        </mxCell>
        <mxCell id="ZY7a_Lk5Y61NJ7jPr_Y_-160" value="Nachname" style="rounded=0;whiteSpace=wrap;html=1;fillColor=#dae8fc;strokeColor=#6c8ebf;" vertex="1" parent="1">
          <mxGeometry x="-384" y="180" width="120" height="60" as="geometry" />
        </mxCell>
        <mxCell id="ZY7a_Lk5Y61NJ7jPr_Y_-165" style="edgeStyle=orthogonalEdgeStyle;rounded=0;orthogonalLoop=1;jettySize=auto;html=1;exitX=0.5;exitY=0;exitDx=0;exitDy=0;endArrow=none;endFill=0;entryX=0;entryY=0.5;entryDx=0;entryDy=0;" edge="1" parent="1" source="ZY7a_Lk5Y61NJ7jPr_Y_-161" target="ZY7a_Lk5Y61NJ7jPr_Y_-158">
          <mxGeometry relative="1" as="geometry">
            <mxPoint x="-269" y="140" as="targetPoint" />
          </mxGeometry>
        </mxCell>
        <mxCell id="ZY7a_Lk5Y61NJ7jPr_Y_-161" value="Rechnung" style="rounded=0;whiteSpace=wrap;html=1;fillColor=#dae8fc;strokeColor=#6c8ebf;" vertex="1" parent="1">
          <mxGeometry x="-384" y="260" width="120" height="60" as="geometry" />
        </mxCell>
        <mxCell id="ZY7a_Lk5Y61NJ7jPr_Y_-166" style="edgeStyle=orthogonalEdgeStyle;rounded=0;orthogonalLoop=1;jettySize=auto;html=1;exitX=0.5;exitY=0;exitDx=0;exitDy=0;endArrow=none;endFill=0;" edge="1" parent="1" source="ZY7a_Lk5Y61NJ7jPr_Y_-162" target="ZY7a_Lk5Y61NJ7jPr_Y_-158">
          <mxGeometry relative="1" as="geometry" />
        </mxCell>
        <mxCell id="ZY7a_Lk5Y61NJ7jPr_Y_-162" value="Vorkasse" style="rounded=0;whiteSpace=wrap;html=1;fillColor=#dae8fc;strokeColor=#6c8ebf;" vertex="1" parent="1">
          <mxGeometry x="-384" y="340" width="120" height="60" as="geometry" />
        </mxCell>
        <mxCell id="ZY7a_Lk5Y61NJ7jPr_Y_-167" style="edgeStyle=orthogonalEdgeStyle;rounded=0;orthogonalLoop=1;jettySize=auto;html=1;exitX=0.5;exitY=0;exitDx=0;exitDy=0;entryX=0;entryY=0.5;entryDx=0;entryDy=0;endArrow=none;endFill=0;" edge="1" parent="1" source="ZY7a_Lk5Y61NJ7jPr_Y_-163" target="ZY7a_Lk5Y61NJ7jPr_Y_-158">
          <mxGeometry relative="1" as="geometry" />
        </mxCell>
        <mxCell id="ZY7a_Lk5Y61NJ7jPr_Y_-163" value="Kreditkarte" style="rounded=0;whiteSpace=wrap;html=1;fillColor=#dae8fc;strokeColor=#6c8ebf;" vertex="1" parent="1">
          <mxGeometry x="-384" y="420" width="120" height="60" as="geometry" />
        </mxCell>
        <mxCell id="ZY7a_Lk5Y61NJ7jPr_Y_-170" style="edgeStyle=orthogonalEdgeStyle;rounded=0;orthogonalLoop=1;jettySize=auto;html=1;exitX=0.5;exitY=0;exitDx=0;exitDy=0;entryX=1;entryY=0.5;entryDx=0;entryDy=0;endArrow=none;endFill=0;" edge="1" parent="1" source="ZY7a_Lk5Y61NJ7jPr_Y_-169" target="ZY7a_Lk5Y61NJ7jPr_Y_-144">
          <mxGeometry relative="1" as="geometry" />
        </mxCell>
        <mxCell id="ZY7a_Lk5Y61NJ7jPr_Y_-173" value="mc" style="edgeLabel;html=1;align=center;verticalAlign=middle;resizable=0;points=[];" vertex="1" connectable="0" parent="ZY7a_Lk5Y61NJ7jPr_Y_-170">
          <mxGeometry x="-0.9357" y="2" relative="1" as="geometry">
            <mxPoint x="2" y="-14" as="offset" />
          </mxGeometry>
        </mxCell>
        <mxCell id="ZY7a_Lk5Y61NJ7jPr_Y_-175" value="" style="edgeStyle=orthogonalEdgeStyle;rounded=0;orthogonalLoop=1;jettySize=auto;html=1;endArrow=none;endFill=0;" edge="1" parent="1" source="ZY7a_Lk5Y61NJ7jPr_Y_-169" target="ZY7a_Lk5Y61NJ7jPr_Y_-174">
          <mxGeometry relative="1" as="geometry" />
        </mxCell>
        <mxCell id="ZY7a_Lk5Y61NJ7jPr_Y_-176" value="1" style="edgeLabel;html=1;align=center;verticalAlign=middle;resizable=0;points=[];" vertex="1" connectable="0" parent="ZY7a_Lk5Y61NJ7jPr_Y_-175">
          <mxGeometry x="-0.6451" y="-4" relative="1" as="geometry">
            <mxPoint as="offset" />
          </mxGeometry>
        </mxCell>
        <mxCell id="ZY7a_Lk5Y61NJ7jPr_Y_-169" value="Bestellung enthÃ¤lt Positionen" style="rhombus;whiteSpace=wrap;html=1;fillColor=#fff2cc;strokeColor=#d6b656;" vertex="1" parent="1">
          <mxGeometry x="1730" y="-100" width="80" height="80" as="geometry" />
        </mxCell>
        <mxCell id="ZY7a_Lk5Y61NJ7jPr_Y_-185" style="edgeStyle=orthogonalEdgeStyle;rounded=0;orthogonalLoop=1;jettySize=auto;html=1;exitX=0.5;exitY=1;exitDx=0;exitDy=0;entryX=0.5;entryY=0;entryDx=0;entryDy=0;endArrow=none;endFill=0;" edge="1" parent="1" source="ZY7a_Lk5Y61NJ7jPr_Y_-174" target="ZY7a_Lk5Y61NJ7jPr_Y_-184">
          <mxGeometry relative="1" as="geometry" />
        </mxCell>
        <mxCell id="ZY7a_Lk5Y61NJ7jPr_Y_-187" value="1" style="edgeLabel;html=1;align=center;verticalAlign=middle;resizable=0;points=[];" vertex="1" connectable="0" parent="ZY7a_Lk5Y61NJ7jPr_Y_-185">
          <mxGeometry x="-0.2447" relative="1" as="geometry">
            <mxPoint as="offset" />
          </mxGeometry>
        </mxCell>
        <mxCell id="ZY7a_Lk5Y61NJ7jPr_Y_-174" value="Kundenbestellung" style="rounded=0;whiteSpace=wrap;html=1;fillColor=#dae8fc;strokeColor=#6c8ebf;" vertex="1" parent="1">
          <mxGeometry x="1710" y="40" width="120" height="60" as="geometry" />
        </mxCell>
        <mxCell id="ZY7a_Lk5Y61NJ7jPr_Y_-178" value="Kundenbestellung" style="rounded=0;whiteSpace=wrap;html=1;fillColor=#dae8fc;strokeColor=#6c8ebf;" vertex="1" parent="1">
          <mxGeometry x="41" y="-10" width="120" height="60" as="geometry" />
        </mxCell>
        <mxCell id="ZY7a_Lk5Y61NJ7jPr_Y_-179" value="Zulaufmenge&lt;br&gt;(int) | -" style="ellipse;whiteSpace=wrap;html=1;fillColor=#f5f5f5;fontColor=#333333;strokeColor=#666666;" vertex="1" parent="1">
          <mxGeometry x="-1994" y="1080" width="120" height="80" as="geometry" />
        </mxCell>
        <mxCell id="ZY7a_Lk5Y61NJ7jPr_Y_-180" value="Eingetroffene Menge&lt;br&gt;(int) | -" style="ellipse;whiteSpace=wrap;html=1;fillColor=#f5f5f5;fontColor=#333333;strokeColor=#666666;" vertex="1" parent="1">
          <mxGeometry x="-834" y="270" width="120" height="80" as="geometry" />
        </mxCell>
        <mxCell id="ZY7a_Lk5Y61NJ7jPr_Y_-181" value="Eingegangene Zahlungen&lt;br&gt;(int) | -" style="ellipse;whiteSpace=wrap;html=1;fillColor=#f5f5f5;fontColor=#333333;strokeColor=#666666;" vertex="1" parent="1">
          <mxGeometry x="-684" y="180" width="120" height="80" as="geometry" />
        </mxCell>
        <mxCell id="ZY7a_Lk5Y61NJ7jPr_Y_-182" value="PrioritÃ¤t&lt;br&gt;(int) | -&lt;br&gt;= 0" style="ellipse;whiteSpace=wrap;html=1;fillColor=#f5f5f5;fontColor=#333333;strokeColor=#666666;" vertex="1" parent="1">
          <mxGeometry x="-684" y="270" width="120" height="80" as="geometry" />
        </mxCell>
        <mxCell id="ZY7a_Lk5Y61NJ7jPr_Y_-197" value="" style="edgeStyle=orthogonalEdgeStyle;rounded=0;orthogonalLoop=1;jettySize=auto;html=1;endArrow=none;endFill=0;" edge="1" parent="1" source="ZY7a_Lk5Y61NJ7jPr_Y_-183" target="ZY7a_Lk5Y61NJ7jPr_Y_-196">
          <mxGeometry relative="1" as="geometry" />
        </mxCell>
        <mxCell id="ZY7a_Lk5Y61NJ7jPr_Y_-199" value="1" style="edgeLabel;html=1;align=center;verticalAlign=middle;resizable=0;points=[];" vertex="1" connectable="0" parent="ZY7a_Lk5Y61NJ7jPr_Y_-197">
          <mxGeometry x="0.2965" y="-3" relative="1" as="geometry">
            <mxPoint y="-1" as="offset" />
          </mxGeometry>
        </mxCell>
        <mxCell id="ZY7a_Lk5Y61NJ7jPr_Y_-183" value="Lieferung" style="rounded=0;whiteSpace=wrap;html=1;fillColor=#dae8fc;strokeColor=#6c8ebf;" vertex="1" parent="1">
          <mxGeometry x="1710" y="270" width="120" height="60" as="geometry" />
        </mxCell>
        <mxCell id="ZY7a_Lk5Y61NJ7jPr_Y_-186" style="edgeStyle=orthogonalEdgeStyle;rounded=0;orthogonalLoop=1;jettySize=auto;html=1;exitX=0.5;exitY=1;exitDx=0;exitDy=0;entryX=0.5;entryY=0;entryDx=0;entryDy=0;endArrow=none;endFill=0;" edge="1" parent="1" source="ZY7a_Lk5Y61NJ7jPr_Y_-184" target="ZY7a_Lk5Y61NJ7jPr_Y_-183">
          <mxGeometry relative="1" as="geometry" />
        </mxCell>
        <mxCell id="ZY7a_Lk5Y61NJ7jPr_Y_-188" value="mc" style="edgeLabel;html=1;align=center;verticalAlign=middle;resizable=0;points=[];" vertex="1" connectable="0" parent="ZY7a_Lk5Y61NJ7jPr_Y_-186">
          <mxGeometry x="0.0412" y="2" relative="1" as="geometry">
            <mxPoint y="-1" as="offset" />
          </mxGeometry>
        </mxCell>
        <mxCell id="ZY7a_Lk5Y61NJ7jPr_Y_-184" value="Bestellung enthÃ¤lt Lieferung" style="rhombus;whiteSpace=wrap;html=1;fillColor=#fff2cc;strokeColor=#d6b656;" vertex="1" parent="1">
          <mxGeometry x="1730" y="140" width="80" height="80" as="geometry" />
        </mxCell>
        <mxCell id="ZY7a_Lk5Y61NJ7jPr_Y_-189" value="Lieferung" style="rounded=0;whiteSpace=wrap;html=1;fillColor=#dae8fc;strokeColor=#6c8ebf;" vertex="1" parent="1">
          <mxGeometry x="193" y="-10" width="120" height="60" as="geometry" />
        </mxCell>
        <mxCell id="ZY7a_Lk5Y61NJ7jPr_Y_-190" value="Bestellungs_ID" style="ellipse;whiteSpace=wrap;html=1;fillColor=#f5f5f5;fontColor=#333333;strokeColor=#666666;" vertex="1" parent="1">
          <mxGeometry x="41" y="80" width="120" height="80" as="geometry" />
        </mxCell>
        <mxCell id="ZY7a_Lk5Y61NJ7jPr_Y_-191" value="Lieferungs_ID" style="ellipse;whiteSpace=wrap;html=1;fillColor=#f5f5f5;fontColor=#333333;strokeColor=#666666;" vertex="1" parent="1">
          <mxGeometry x="193" y="80" width="120" height="80" as="geometry" />
        </mxCell>
        <mxCell id="ZY7a_Lk5Y61NJ7jPr_Y_-192" value="Seriennummernerfassung&lt;br&gt;(bool) | -" style="ellipse;whiteSpace=wrap;html=1;fillColor=#f5f5f5;fontColor=#333333;strokeColor=#666666;" vertex="1" parent="1">
          <mxGeometry x="-1994" y="1170" width="120" height="80" as="geometry" />
        </mxCell>
        <mxCell id="ZY7a_Lk5Y61NJ7jPr_Y_-193" value="Seriennummer&lt;br&gt;(int) | +" style="ellipse;whiteSpace=wrap;html=1;fillColor=#f5f5f5;fontColor=#333333;strokeColor=#666666;" vertex="1" parent="1">
          <mxGeometry x="-104" y="280" width="120" height="80" as="geometry" />
        </mxCell>
        <mxCell id="ZY7a_Lk5Y61NJ7jPr_Y_-194" value="Rechnung" style="rounded=0;whiteSpace=wrap;html=1;fillColor=#dae8fc;strokeColor=#6c8ebf;" vertex="1" parent="1">
          <mxGeometry x="343" y="-10" width="120" height="60" as="geometry" />
        </mxCell>
        <mxCell id="ZY7a_Lk5Y61NJ7jPr_Y_-198" value="" style="edgeStyle=orthogonalEdgeStyle;rounded=0;orthogonalLoop=1;jettySize=auto;html=1;endArrow=none;endFill=0;" edge="1" parent="1" source="ZY7a_Lk5Y61NJ7jPr_Y_-195" target="ZY7a_Lk5Y61NJ7jPr_Y_-196">
          <mxGeometry relative="1" as="geometry" />
        </mxCell>
        <mxCell id="ZY7a_Lk5Y61NJ7jPr_Y_-200" value="1" style="edgeLabel;html=1;align=center;verticalAlign=middle;resizable=0;points=[];" vertex="1" connectable="0" parent="ZY7a_Lk5Y61NJ7jPr_Y_-198">
          <mxGeometry x="0.48" y="-2" relative="1" as="geometry">
            <mxPoint y="-1" as="offset" />
          </mxGeometry>
        </mxCell>
        <mxCell id="ZY7a_Lk5Y61NJ7jPr_Y_-195" value="Rechnung" style="rounded=0;whiteSpace=wrap;html=1;fillColor=#dae8fc;strokeColor=#6c8ebf;" vertex="1" parent="1">
          <mxGeometry x="1710" y="490" width="120" height="60" as="geometry" />
        </mxCell>
        <mxCell id="ZY7a_Lk5Y61NJ7jPr_Y_-196" value="Lieferung enthÃ¤lt Rechnung" style="rhombus;whiteSpace=wrap;html=1;fillColor=#fff2cc;strokeColor=#d6b656;" vertex="1" parent="1">
          <mxGeometry x="1730" y="370" width="80" height="80" as="geometry" />
        </mxCell>
        <mxCell id="ZY7a_Lk5Y61NJ7jPr_Y_-201" value="Rechnungskopf" style="rounded=0;whiteSpace=wrap;html=1;fillColor=#dae8fc;strokeColor=#6c8ebf;" vertex="1" parent="1">
          <mxGeometry x="1990" y="490" width="120" height="60" as="geometry" />
        </mxCell>
        <mxCell id="ZY7a_Lk5Y61NJ7jPr_Y_-202" value="Rechnungskopf" style="rounded=0;whiteSpace=wrap;html=1;fillColor=#dae8fc;strokeColor=#6c8ebf;" vertex="1" parent="1">
          <mxGeometry x="480" y="-10" width="120" height="60" as="geometry" />
        </mxCell>
        <mxCell id="ZY7a_Lk5Y61NJ7jPr_Y_-204" value="" style="edgeStyle=orthogonalEdgeStyle;rounded=0;orthogonalLoop=1;jettySize=auto;html=1;endArrow=none;endFill=0;" edge="1" parent="1" source="ZY7a_Lk5Y61NJ7jPr_Y_-203" target="ZY7a_Lk5Y61NJ7jPr_Y_-201">
          <mxGeometry relative="1" as="geometry" />
        </mxCell>
        <mxCell id="ZY7a_Lk5Y61NJ7jPr_Y_-206" value="1" style="edgeLabel;html=1;align=center;verticalAlign=middle;resizable=0;points=[];" vertex="1" connectable="0" parent="ZY7a_Lk5Y61NJ7jPr_Y_-204">
          <mxGeometry x="0.0176" y="-1" relative="1" as="geometry">
            <mxPoint as="offset" />
          </mxGeometry>
        </mxCell>
        <mxCell id="ZY7a_Lk5Y61NJ7jPr_Y_-205" value="1" style="edgeStyle=orthogonalEdgeStyle;rounded=0;orthogonalLoop=1;jettySize=auto;html=1;endArrow=none;endFill=0;" edge="1" parent="1" source="ZY7a_Lk5Y61NJ7jPr_Y_-203" target="ZY7a_Lk5Y61NJ7jPr_Y_-195">
          <mxGeometry relative="1" as="geometry" />
        </mxCell>
        <mxCell id="ZY7a_Lk5Y61NJ7jPr_Y_-203" value="Rechnung enthÃ¤lt Rechnungskopf" style="rhombus;whiteSpace=wrap;html=1;fillColor=#fff2cc;strokeColor=#d6b656;" vertex="1" parent="1">
          <mxGeometry x="1870" y="480" width="80" height="80" as="geometry" />
        </mxCell>
        <mxCell id="ZY7a_Lk5Y61NJ7jPr_Y_-208" value="" style="edgeStyle=orthogonalEdgeStyle;rounded=0;orthogonalLoop=1;jettySize=auto;html=1;endArrow=none;endFill=0;" edge="1" parent="1" source="ZY7a_Lk5Y61NJ7jPr_Y_-207" target="ZY7a_Lk5Y61NJ7jPr_Y_-195">
          <mxGeometry relative="1" as="geometry" />
        </mxCell>
        <mxCell id="ZY7a_Lk5Y61NJ7jPr_Y_-213" value="1" style="edgeLabel;html=1;align=center;verticalAlign=middle;resizable=0;points=[];" vertex="1" connectable="0" parent="ZY7a_Lk5Y61NJ7jPr_Y_-208">
          <mxGeometry x="-0.1" y="1" relative="1" as="geometry">
            <mxPoint as="offset" />
          </mxGeometry>
        </mxCell>
        <mxCell id="ZY7a_Lk5Y61NJ7jPr_Y_-209" style="edgeStyle=orthogonalEdgeStyle;rounded=0;orthogonalLoop=1;jettySize=auto;html=1;exitX=0.5;exitY=0;exitDx=0;exitDy=0;entryX=0.75;entryY=1;entryDx=0;entryDy=0;endArrow=none;endFill=0;" edge="1" parent="1" source="ZY7a_Lk5Y61NJ7jPr_Y_-207" target="ZY7a_Lk5Y61NJ7jPr_Y_-144">
          <mxGeometry relative="1" as="geometry" />
        </mxCell>
        <mxCell id="ZY7a_Lk5Y61NJ7jPr_Y_-211" value="" style="edgeStyle=orthogonalEdgeStyle;rounded=0;orthogonalLoop=1;jettySize=auto;html=1;endArrow=none;endFill=0;" edge="1" parent="1" source="ZY7a_Lk5Y61NJ7jPr_Y_-207">
          <mxGeometry relative="1" as="geometry">
            <mxPoint x="1630" y="390" as="targetPoint" />
          </mxGeometry>
        </mxCell>
        <mxCell id="ZY7a_Lk5Y61NJ7jPr_Y_-212" value="mc" style="edgeLabel;html=1;align=center;verticalAlign=middle;resizable=0;points=[];" vertex="1" connectable="0" parent="ZY7a_Lk5Y61NJ7jPr_Y_-211">
          <mxGeometry x="-0.3739" y="3" relative="1" as="geometry">
            <mxPoint as="offset" />
          </mxGeometry>
        </mxCell>
        <mxCell id="ZY7a_Lk5Y61NJ7jPr_Y_-207" value="Rechnung enthÃ¤lt Positionen" style="rhombus;whiteSpace=wrap;html=1;fillColor=#fff2cc;strokeColor=#d6b656;" vertex="1" parent="1">
          <mxGeometry x="1590" y="480" width="80" height="80" as="geometry" />
        </mxCell>
        <mxCell id="ZY7a_Lk5Y61NJ7jPr_Y_-216" value="Logistiker&lt;br&gt;(text) | -" style="ellipse;whiteSpace=wrap;html=1;fillColor=#f5f5f5;fontColor=#333333;strokeColor=#666666;" vertex="1" parent="1">
          <mxGeometry x="193" y="180" width="120" height="80" as="geometry" />
        </mxCell>
        <mxCell id="ZY7a_Lk5Y61NJ7jPr_Y_-217" value="Ãœbergabezeitpunkt&lt;br&gt;(date) | -" style="ellipse;whiteSpace=wrap;html=1;fillColor=#f5f5f5;fontColor=#333333;strokeColor=#666666;" vertex="1" parent="1">
          <mxGeometry x="193" y="280" width="120" height="80" as="geometry" />
        </mxCell>
        <mxCell id="ZY7a_Lk5Y61NJ7jPr_Y_-218" value="Sendungsnummer&lt;br&gt;(int) | -" style="ellipse;whiteSpace=wrap;html=1;fillColor=#f5f5f5;fontColor=#333333;strokeColor=#666666;" vertex="1" parent="1">
          <mxGeometry x="193" y="380" width="120" height="80" as="geometry" />
        </mxCell>
        <mxCell id="ZY7a_Lk5Y61NJ7jPr_Y_-219" value="Rechnungs_ID" style="ellipse;whiteSpace=wrap;html=1;fillColor=#f5f5f5;fontColor=#333333;strokeColor=#666666;" vertex="1" parent="1">
          <mxGeometry x="343" y="80" width="120" height="80" as="geometry" />
        </mxCell>
        <mxCell id="ZY7a_Lk5Y61NJ7jPr_Y_-220" value="Rechnungskopf_ID" style="ellipse;whiteSpace=wrap;html=1;fillColor=#f5f5f5;fontColor=#333333;strokeColor=#666666;" vertex="1" parent="1">
          <mxGeometry x="480" y="80" width="120" height="80" as="geometry" />
        </mxCell>
      </root>
    </mxGraphModel>
  </diagram>
</mxfile>
